<svg width="20" height="20" viewBox="0 0 20 20" fill="none" xmlns="http://www.w3.org/2000/svg">
<path d="M15.8337 9C16.3859 9.00018 16.8337 9.44782 16.8337 10C16.8337 10.5522 16.3859 10.9998 15.8337 11H4.16675C3.61446 11 3.16675 10.5523 3.16675 10C3.16675 9.44772 3.61446 9 4.16675 9H15.8337Z" fill="black"/>
<path d="M9.29257 3.4598C9.68304 3.06933 10.3161 3.06944 10.7066 3.4598C11.0972 3.85033 11.0972 4.48334 10.7066 4.87387L5.57968 9.99984L10.7066 15.1268C11.0972 15.5173 11.0972 16.1503 10.7066 16.5409C10.3161 16.9311 9.68298 16.9313 9.29257 16.5409L3.45956 10.7069C3.0692 10.3163 3.06909 9.68328 3.45956 9.29281L9.29257 3.4598Z" fill="black"/>
</svg>
