<svg width="20" height="20" viewBox="0 0 20 20" fill="none" xmlns="http://www.w3.org/2000/svg">
<path d="M15.8337 9.5C16.1097 9.50018 16.3337 9.72397 16.3337 10C16.3337 10.276 16.1097 10.4998 15.8337 10.5H4.16675C3.89061 10.5 3.66675 10.2761 3.66675 10C3.66675 9.72386 3.89061 9.5 4.16675 9.5H15.8337Z" fill="black"/>
<path d="M9.64645 3.81319C9.84171 3.61793 10.1582 3.61793 10.3535 3.81319L16.1865 9.6462C16.3817 9.84146 16.3817 10.158 16.1865 10.3532L10.3535 16.1872C10.1583 16.3823 9.84167 16.3823 9.64645 16.1872C9.45124 15.992 9.45135 15.6755 9.64645 15.4802L15.1259 9.99972L9.64645 4.52023C9.45118 4.32496 9.45118 4.00846 9.64645 3.81319Z" fill="black"/>
</svg>
