<svg width="24" height="24" viewBox="0 0 24 24" fill="none" xmlns="http://www.w3.org/2000/svg">
<path d="M11.5 20.75L11.5 2.75C11.5 2.47386 11.7239 2.25 12 2.25C12.2761 2.25 12.5 2.47386 12.5 2.75L12.5 20.75C12.5 21.0261 12.2761 21.25 12 21.25C11.7239 21.25 11.5 21.0261 11.5 20.75Z" fill="#32FA8C"/>
<path d="M18.6464 13.8964C18.8417 13.7012 19.1582 13.7012 19.3535 13.8964C19.5487 14.0917 19.5487 14.4082 19.3535 14.6035L12.3535 21.6035C12.1582 21.7987 11.8417 21.7987 11.6464 21.6035L4.64645 14.6035C4.45118 14.4082 4.45118 14.0917 4.64645 13.8964C4.84171 13.7012 5.15822 13.7012 5.35348 13.8964L12 20.5429L18.6464 13.8964Z" fill="#32FA8C"/>
</svg>
