<svg width="20" height="20" viewBox="0 0 20 20" fill="none" xmlns="http://www.w3.org/2000/svg">
<g clip-path="url(#clip0_40_84)">
<path d="M10 0C8.02219 0 6.08879 0.58649 4.4443 1.6853C2.79981 2.78412 1.51809 4.3459 0.761209 6.17317C0.00433288 8.00043 -0.193701 10.0111 0.192152 11.9509C0.578004 13.8907 1.53041 15.6725 2.92894 17.0711C4.32746 18.4696 6.10929 19.422 8.0491 19.8079C9.98891 20.1937 11.9996 19.9957 13.8268 19.2388C15.6541 18.4819 17.2159 17.2002 18.3147 15.5557C19.4135 13.9112 20 11.9778 20 10C20 7.34784 18.9464 4.8043 17.0711 2.92893C15.1957 1.05357 12.6522 0 10 0ZM16.25 9.77273C16.2411 9.89971 16.2248 10.0261 16.2011 10.1511C16.1221 10.63 15.9602 11.0915 15.7227 11.5148C15.6091 11.717 15.0625 12.4852 14.8955 12.6875C13.9716 13.8 12.4239 15.0841 9.8375 16.333C9.78294 16.3593 9.72233 16.3707 9.66193 16.3658C9.60153 16.361 9.54351 16.3401 9.49385 16.3054C9.44419 16.2706 9.40469 16.2233 9.3794 16.1682C9.35412 16.1132 9.34397 16.0523 9.35 15.992L9.48069 14.8182C9.49058 14.7284 9.46442 14.6383 9.40795 14.5678C9.35149 14.4973 9.26934 14.452 9.17955 14.442C8.31913 14.356 7.48098 14.117 6.70455 13.7364C4.93182 12.8602 3.75 11.2955 3.75 9.5125C3.75 6.76705 6.54773 4.54545 10 4.54545C11.7341 4.54545 13.3023 5.11364 14.4318 6.01477C15.4898 6.86136 16.167 8.01023 16.2398 9.28523C16.2519 9.44743 16.2553 9.61016 16.25 9.77273Z" fill="white"/>
<path d="M8.27724 10.6127C8.30747 10.6422 8.33141 10.6776 8.34762 10.7167C8.36383 10.7557 8.37197 10.7976 8.37156 10.8399C8.37171 10.882 8.36356 10.9236 8.34758 10.9625C8.3316 11.0013 8.3081 11.0367 8.27843 11.0665C8.24877 11.0962 8.21352 11.1198 8.1747 11.136C8.13588 11.1521 8.09427 11.1604 8.05224 11.1604H6.77383C6.68893 11.1601 6.6076 11.1262 6.54757 11.0662C6.48753 11.0062 6.45368 10.9248 6.45338 10.8399V8.42515C6.45309 8.38289 6.4613 8.34099 6.4775 8.30196C6.4937 8.26292 6.51757 8.22753 6.54769 8.19788C6.59242 8.15301 6.64949 8.12247 6.71163 8.11012C6.77376 8.09778 6.83817 8.1042 6.89665 8.12857C6.95513 8.15293 7.00504 8.19414 7.04003 8.24696C7.07502 8.29977 7.09351 8.3618 7.09315 8.42515V10.5195H8.05224C8.09407 10.5192 8.13554 10.5272 8.17419 10.5432C8.21284 10.5592 8.24788 10.5829 8.27724 10.6127Z" fill="white"/>
<path d="M9.31823 8.35597V10.9094C9.31793 10.9756 9.2915 11.039 9.24468 11.0858C9.19786 11.1326 9.13444 11.1591 9.06823 11.1594H8.92505C8.85875 11.1594 8.79516 11.133 8.74827 11.0862C8.70139 11.0393 8.67505 10.9757 8.67505 10.9094V8.35597C8.67505 8.28966 8.70139 8.22607 8.74827 8.17919C8.79516 8.13231 8.85875 8.10597 8.92505 8.10597H9.06482C9.0979 8.10567 9.13071 8.1119 9.16136 8.12432C9.19202 8.13674 9.21992 8.15509 9.24347 8.17831C9.26702 8.20154 9.28574 8.2292 9.29857 8.25968C9.3114 8.29017 9.31808 8.32289 9.31823 8.35597Z" fill="white"/>
<path d="M12.2864 8.42532V10.8265C12.2865 10.9128 12.253 10.9958 12.193 11.058C12.1329 11.1201 12.0512 11.1565 11.9648 11.1594C11.8839 11.1581 11.8065 11.1265 11.7478 11.0708C11.7364 11.0617 11.3069 10.5026 10.9421 10.0321C10.6694 9.681 10.433 9.37418 10.433 9.37418V10.839C10.4332 10.901 10.4153 10.9618 10.3815 11.0139C10.3477 11.066 10.2995 11.1071 10.2427 11.1322C10.1859 11.1572 10.123 11.1652 10.0618 11.1551C10.0005 11.145 9.94352 11.1173 9.89778 11.0753C9.86479 11.0454 9.83844 11.0089 9.82043 10.9682C9.80242 10.9275 9.79316 10.8835 9.79324 10.839V8.43895C9.79218 8.35458 9.82354 8.27302 9.88083 8.21107C9.93812 8.14913 10.017 8.11152 10.1012 8.106C10.1488 8.10522 10.1961 8.11501 10.2395 8.13466C10.2829 8.1543 10.3215 8.18333 10.3523 8.21964C10.366 8.23555 11.0262 9.09464 11.3978 9.58327C11.5455 9.77418 11.6478 9.90827 11.6478 9.90827V8.431C11.6484 8.3465 11.6822 8.26562 11.742 8.20587C11.8017 8.14611 11.8826 8.11228 11.9671 8.11168C12.0508 8.11167 12.1312 8.14453 12.1909 8.20319C12.2506 8.26185 12.2849 8.34162 12.2864 8.42532Z" fill="white"/>
<path d="M13.4091 9.95149V10.5197H14.367C14.4106 10.5171 14.4543 10.5234 14.4954 10.5383C14.5364 10.5532 14.574 10.5764 14.6058 10.6063C14.6376 10.6363 14.663 10.6724 14.6803 10.7125C14.6976 10.7526 14.7065 10.7959 14.7065 10.8396C14.7065 10.8832 14.6976 10.9265 14.6803 10.9666C14.663 11.0067 14.6376 11.0428 14.6058 11.0728C14.574 11.1028 14.5364 11.1259 14.4954 11.1408C14.4543 11.1557 14.4106 11.162 14.367 11.1594H13.0852C13.0004 11.1591 12.9192 11.1253 12.8593 11.0652C12.7995 11.0051 12.7659 10.9238 12.7659 10.839V8.42535C12.7662 8.34076 12.7999 8.25971 12.8597 8.19989C12.9195 8.14008 13.0006 8.10634 13.0852 8.10604H14.3636C14.4072 8.10344 14.4509 8.10978 14.492 8.12468C14.533 8.13958 14.5706 8.16272 14.6024 8.19268C14.6342 8.22264 14.6596 8.25879 14.6769 8.2989C14.6942 8.33901 14.7031 8.38223 14.7031 8.42592C14.7031 8.46961 14.6942 8.51284 14.6769 8.55295C14.6596 8.59306 14.6342 8.62921 14.6024 8.65916C14.5706 8.68912 14.533 8.71226 14.492 8.72717C14.4509 8.74207 14.4072 8.74841 14.3636 8.74581H13.4091V9.31399H14.367C14.4517 9.31399 14.5329 9.34763 14.5928 9.40752C14.6527 9.4674 14.6863 9.54862 14.6863 9.63331C14.6863 9.718 14.6527 9.79922 14.5928 9.8591C14.5329 9.91899 14.4517 9.95263 14.367 9.95263L13.4091 9.95149Z" fill="white"/>
</g>
<defs>
<clipPath id="clip0_40_84">
<rect width="20" height="20" fill="white"/>
</clipPath>
</defs>
</svg>
