<svg width="16" height="16" viewBox="0 0 16 16" fill="none" xmlns="http://www.w3.org/2000/svg">
<g clip-path="url(#clip0_212_603)">
<path d="M8 0.333252C3.59 0.333252 0 3.26525 0 6.86859C0 10.0959 2.84667 12.7999 6.69 13.3139C6.95067 13.3693 7.30533 13.4873 7.39533 13.7099C7.47533 13.9119 7.448 14.2239 7.42067 14.4346L7.31133 15.1186C7.28133 15.3206 7.15133 15.9139 8.01067 15.5513C8.87133 15.1899 12.6213 12.8153 14.3013 10.8719C15.4507 9.60525 16 8.30725 16 6.86859C16 3.26525 12.41 0.333252 8 0.333252ZM4.86867 9.01125H3.278C3.048 9.01125 2.858 8.81992 2.858 8.58925V5.38859C2.858 5.15725 3.048 4.96592 3.278 4.96592C3.51 4.96592 3.698 5.15725 3.698 5.38859V8.16659H4.86867C5.10067 8.16659 5.288 8.35659 5.288 8.58925C5.288 8.81992 5.1 9.01125 4.86867 9.01125ZM6.51267 8.58925C6.51267 8.81992 6.32467 9.01125 6.092 9.01125C5.862 9.01125 5.674 8.81992 5.674 8.58925V5.38859C5.674 5.15725 5.862 4.96592 6.094 4.96592C6.32467 4.96592 6.51267 5.15725 6.51267 5.38859V8.58925ZM10.34 8.58925C10.34 8.77059 10.224 8.93125 10.052 8.98925C10.0093 9.00325 9.96333 9.00992 9.91933 9.00992C9.77867 9.00992 9.65867 8.94925 9.57933 8.84192L7.95067 6.61659V8.58859C7.95067 8.81925 7.76467 9.01059 7.53 9.01059C7.29933 9.01059 7.11267 8.81925 7.11267 8.58859V5.38859C7.11267 5.20725 7.228 5.04659 7.39933 4.98925C7.43933 4.97392 7.49 4.96725 7.52867 4.96725C7.65867 4.96725 7.77867 5.03725 7.85867 5.13792L9.5 7.37192V5.38859C9.5 5.15725 9.688 4.96592 9.92 4.96592C10.15 4.96592 10.34 5.15725 10.34 5.38859V8.58925ZM12.91 6.56592C13.1427 6.56592 13.33 6.75725 13.33 6.98925C13.33 7.22059 13.1427 7.41192 12.91 7.41192H11.74V8.16659H12.91C13.1427 8.16659 13.33 8.35659 13.33 8.58925C13.33 8.81992 13.1427 9.01125 12.91 9.01125H11.3193C11.0893 9.01125 10.9013 8.81992 10.9013 8.58925V5.38859C10.9013 5.15725 11.0893 4.96592 11.3213 4.96592H12.912C13.1427 4.96592 13.33 5.15725 13.33 5.38859C13.33 5.62259 13.1427 5.81125 12.91 5.81125H11.74V6.56592H12.91Z" fill="white"/>
</g>
<defs>
<clipPath id="clip0_212_603">
<rect width="16" height="16" fill="white"/>
</clipPath>
</defs>
</svg>
