<svg width="16" height="16" viewBox="0 0 16 16" fill="none" xmlns="http://www.w3.org/2000/svg">
<path d="M9.33716 9.80279C8.93909 10.0682 8.47672 10.2085 8 10.2085C7.52331 10.2085 7.06094 10.0682 6.66287 9.80279L0.106531 5.43176C0.0701562 5.40751 0.0347187 5.38223 0 5.35623V12.5186C0 13.3398 0.666406 13.9915 1.47291 13.9915H14.5271C15.3482 13.9915 16 13.3251 16 12.5186V5.3562C15.9652 5.38226 15.9297 5.40761 15.8932 5.43189L9.33716 9.80279Z" fill="white"/>
<path d="M0.626562 4.6518L7.18291 9.02286C7.43109 9.18833 7.71553 9.27105 7.99997 9.27105C8.28444 9.27105 8.56891 9.1883 8.81709 9.02286L15.3734 4.6518C15.7658 4.39039 16 3.95289 16 3.48071C16 2.6688 15.3395 2.0083 14.5276 2.0083H1.47241C0.660531 2.00833 0 2.66883 0 3.48149C0 3.95289 0.23425 4.39039 0.626562 4.6518Z" fill="white"/>
</svg>
