<svg width="20" height="20" viewBox="0 0 20 20" fill="none" xmlns="http://www.w3.org/2000/svg">
<g clip-path="url(#clip0_40_81)">
<path fill-rule="evenodd" clip-rule="evenodd" d="M10 0C15.5229 0 20 4.47715 20 10C20 15.5229 15.5229 20 10 20C4.47715 20 0 15.5229 0 10C0 4.47715 4.47715 0 10 0ZM16.3477 13.8766V6.44445L12.6314 10.1605L16.3477 13.8766ZM4.44625 14.028H15.554L12.1591 10.6332L10.8653 11.9268C10.8025 11.9894 10.7175 12.0245 10.6289 12.0245H9.37113C9.32725 12.0245 9.28379 12.0159 9.24323 11.9992C9.20268 11.9824 9.16582 11.9578 9.13477 11.9268L7.84094 10.6332L4.44609 14.028H4.44625ZM3.65234 6.44422V13.8768L7.36863 10.1605L3.65234 6.44422ZM15.8752 5.97199H4.125L9.50953 11.3565H10.4907L15.8752 5.97199Z" fill="white"/>
</g>
<defs>
<clipPath id="clip0_40_81">
<rect width="20" height="20" fill="white"/>
</clipPath>
</defs>
</svg>
