<svg width="16" height="16" viewBox="0 0 16 16" fill="none" xmlns="http://www.w3.org/2000/svg">
<g clip-path="url(#clip0_212_606)">
<path d="M8 0.5C3.8645 0.5 0.5 3.86426 0.5 8C0.5 9.45508 0.917236 10.8579 1.70923 12.0762L0.540527 14.8032C0.459961 14.9907 0.501953 15.209 0.646484 15.3535C0.742187 15.4492 0.870117 15.5 1 15.5C1.06641 15.5 1.13354 15.4868 1.19702 15.4595L3.92407 14.2905C5.14209 15.083 6.54492 15.5 8 15.5C12.1357 15.5 15.5 12.1357 15.5 8C15.5 3.86426 12.1357 0.5 8 0.5ZM11.8496 10.6846C11.8496 10.6846 11.2261 11.4844 10.7754 11.6714C9.62988 12.1455 8.0127 11.6714 6.17041 9.82959C4.32861 7.9873 3.85425 6.37012 4.32861 5.22461C4.51562 4.77344 5.31543 4.15039 5.31543 4.15039C5.53223 3.98145 5.86914 4.00244 6.06348 4.19678L6.96826 5.10156C7.1626 5.2959 7.1626 5.61426 6.96826 5.80859L6.40039 6.37598C6.40039 6.37598 6.17041 7.06641 7.55176 8.44824C8.93311 9.82959 9.62402 9.59961 9.62402 9.59961L10.1914 9.03174C10.3857 8.8374 10.7041 8.8374 10.8984 9.03174L11.8032 9.93652C11.9976 10.1309 12.0186 10.4673 11.8496 10.6846Z" fill="white"/>
</g>
<defs>
<clipPath id="clip0_212_606">
<rect width="16" height="16" fill="white"/>
</clipPath>
</defs>
</svg>
